<?xml version="1.0" encoding="utf-8"?>
<!-- Generator: Adobe Illustrator 26.0.1, SVG Export Plug-In . SVG Version: 6.00 Build 0)  -->
<svg version="1.1" id="Layer_1" xmlns="http://www.w3.org/2000/svg" xmlns:xlink="http://www.w3.org/1999/xlink" x="0px" y="0px"
	 viewBox="0 0 465.27 123.99" style="enable-background:new 0 0 465.27 123.99;" xml:space="preserve">
<g transform="matrix(.49696 0 0 .46824 466.2 -2.8906)">
	<path d="M-559.76,15.46c0.3,0,0.55,0.01,0.79,0.16c0.33,0.23,0.65,0.55,0.85,0.89c0.22,0.4,0.24,0.81,0.05,1.25
		c-0.45,1.02-1.1,2.03-1.84,2.92c-0.45,0.54-0.78,1.04-1.16,1.62c-0.28,0.35-0.43,0.87-0.46,1.24c-0.02,0.55-0.02,1.06,0.19,1.58
		c0.02,0.05,0.06,0.07,0.08,0.12c0.24,0.45,0.41,0.92,0.65,1.37c0.36,0.76,1.3,1.18,2.13,1.16c0.16-0.06,0.21,0,0.32-0.04
		c0.21-0.08,0.39-0.22,0.48-0.31c1.59-1.65,3.37-2.96,5.36-4.05c0.95-0.49,2.02-0.19,2.65,0.65c0.29,0.43,0.3,1.03,0.11,1.46
		s-0.34,0.78-0.66,1.2c-0.39,0.7-1,1.38-1.63,1.93l-1.25,1.08l-1.63,1.42c-0.3,0.3-0.67,0.58-0.99,0.83c-0.3,0.3-0.6,0.73-0.84,1.06
		c-0.18,0.31-0.44,0.48-0.66,0.69c-0.14,0.11-0.28,0.35-0.32,0.55c-0.11,0.34-0.13,0.78-0.14,1.21c-0.05,0.5-0.04,1.07,0.09,1.56
		c0.06,0.46,0.2,0.91,0.33,1.41c0.04,0.1,0.12,0.13,0.16,0.24c0.16,0.42,0.32,0.86,0.67,1.27l0.59,0.64c1.15,0.15,2.41,0,3.58-0.4
		l3.72-1.09l2.99-1.03l3.07-0.91l1.07-0.19l0.61,0.02c0.26-0.4,0.61-0.86,0.88-1.26c0.41-0.64,0.77-1.28,1.14-2.03
		c0.37-0.75,0.7-1.52,0.9-2.39c0.18-0.61,0.4-1.31,0.7-1.91c0.24-0.46,0.66-0.82,1.13-1c0.45-0.24,0.99-0.26,1.44-0.01
		c0.55,0.33,1,0.89,1.02,1.55c0.04,1.79-0.25,3.58-0.78,5.3l-0.42,1.56l6.61,2.9c1-0.21,1.94-0.5,2.91-0.64
		c0.85-0.15,1.76-0.06,2.55,0.11c0.84,0.15,1.54,0.73,1.85,1.51c0.3,0.61,0.19,1.26-0.27,1.8c-0.62,0.73-1.43,1.31-2.28,1.59
		l-1.74,0.47c-1.33,0.46-2.68,0.83-3.94,1.15c-0.88,0.22-1.6,0.51-2.44,0.84c-0.47,0.18-0.97,0.34-1.68,0.68
		c-1.11,0.55-2.26,1.11-3.21,1.6c-1.29,0.56-2.46,1.28-3.45,2.28c-0.95,0.97-1.69,2.12-2.43,3.31c-0.42,0.77-0.96,1.63-1.34,2.5
		c-0.5,1.04-0.66,2.29-0.61,3.48c0.1,1.17,0.28,2.29,0.73,3.45c0.04,0.1,0.12,0.22,0.24,0.36c0.69,1.6,1.53,3.14,2.57,4.54
		c1.51,2,3.28,3.87,5.25,5.51l2.36,2.03l1.56,0.94l9.93-3.72c0.06-2.92,0.03-5.87-0.13-8.88c-0.03-0.53,0.16-1.16,0.42-1.56
		c0.53-0.81,1.59-0.8,2.18-0.07c0.68,0.82,1.19,1.78,1.37,2.86c0.19,0.95,0.23,1.96,0.12,2.91c-0.05,0.32-0.07,0.57,0.03,0.83
		c0.08,0.21,0.21,0.43,0.39,0.6c0.43,0.49,1.13,0.71,1.76,0.46c0.12,0.01,0.28-0.05,0.44-0.12c1.36-0.53,2.67-1.51,3.47-2.37
		c1.15-1.23,2.19-2.36,3.56-3.8c0.78-0.79,1.47-1.69,1.99-2.68c0.49-0.91,0.99-1.86,1.6-2.76c0.36-0.62,0.89-1.15,1.45-1.55
		c0.43-0.29,1.01-0.35,1.46-0.11c0.55,0.33,0.91,0.96,0.8,1.61l-0.36,1.26l-0.85,2.61l-0.7,1.91l-0.78,1.28
		c0.62-0.12,1.23-0.3,1.86-0.54c0.84-0.33,1.71-0.76,2.44-1.35l2.16-1.51c0.55-0.45,1.13-0.56,1.82-0.35
		c0.67,0.16,1.03,0.88,0.92,1.53c-0.11,0.65-0.31,1.22-0.66,1.72l-1.32,1.89c0.15,2.54-0.1,5.09-0.64,7.59l-0.39,1.88l-0.68,1.82
		l-0.78,1.8c0.84-0.33,1.66-0.53,2.55-0.4c0.7,0.09,1.25,0.61,1.5,1.23c0.34,0.71,0.17,1.51-0.51,1.96
		c-0.76,0.54-1.55,0.94-2.34,1.37c-1.21,0.6-2.47,0.99-3.84,1.17c-1.71,0.25-3.3,0.57-4.81,0.86l-8.36,1.58l-1.98,0.62
		c3.73,1.57,8.95,3.29,13.92,4.41c7.04,1.58,7.84,2.31,7.07,6.19c-0.55,2.76-1.59,4.41-2.71,4.18c-1.59-0.33-12.98,2.86-14.64,4.09
		c-0.88,0.66-2.29,2.57-3.15,4.29c-1.51,3.02-1.49,3.49,0.84,11.91c2.67,9.63,2.43,11.66-1.95,16.49c-1.2,1.33-2.74,3.54-3.37,4.87
		c-0.63,1.33-2.13,4.32-3.34,6.73c-2.49,4.95-2.66,8.06-0.59,9.35c0.78,0.49,3.97,0.98,7.19,1.07c17.31,0.47,16.66,0.36,19.79,2.42
		c3.08,2.03,14.58,5.92,20.69,7.04c6.59,1.2,19.94,6.75,19.64,8.16c-0.06,0.29-1.83,0.94-3.98,1.34c-4.93,0.93-10.07-0.24-19.2-4.26
		c-8.08-3.55-9-3.79-9.2-2.82c-0.08,0.38,1.84,1.9,4.33,3.47c2.49,1.56,5.57,4.25,6.81,5.93c1.24,1.68,2.91,3.4,3.74,3.86
		c0.83,0.46,2.79,2.77,4.3,5.11l2.73,4.27l-5.63-1.16c-5.43-1.12-5.75-1.31-8.64-5.07c-1.65-2.14-3.32-3.98-3.8-4.08
		s-3.97-2.73-7.64-5.9c-9.6-8.28-14.65-9.58-24.16-6.21c-9.4,3.34-13.4,3.91-18.83,2.92c-3.13-0.57-6.14-0.65-7.38-0.18
		c-1.14,0.44-2.62,1-3.33,1.17c-0.71,0.16-3.27,0.86-5.69,1.61c-4.19,1.31-17.28,5.25-20.96,6.29c-2.32,0.66-10.46,1.31-12.98,1.04
		c-1.1-0.12-2.39-0.49-2.8-0.89s-4.32-1.18-8.71-1.69c-11.65-1.36-16.49,0.21-22.31,7.35c-6.34,7.78-11.55,9.57-23.82,8.18
		c-1.99-0.23-7.1-0.68-11.33-0.99c-7.52-0.56-7.74-0.41-13.09,2.56c-3,1.67-6.2,3.93-7.03,5.14c-1.49,2.18-9.12,7.33-14.1,9.46
		c-1.42,0.61-3.65,1.73-4.94,2.48c-1.29,0.75-2.6,1.32-2.93,1.25s-1.11-0.18-1.72-0.15c-0.61,0.03-2.07-0.24-3.26-0.67
		c-2.05-0.75-2.07-0.96-0.97-3.8l1.12-2.96l-3.46-0.71c-1.91-0.39-3.64-0.98-3.85-1.31c-0.61-0.92,4.43-4.97,7.65-6.15
		c1.59-0.58,3.58-0.91,4.47-0.73c1.87,0.38,13.27-4.5,18.18-7.79c1.83-1.23,5.06-4.29,7.16-6.77c3.22-3.81,4.18-4.38,6.21-4.18
		c4.86,0.48,12.09-1.19,15.01-3.4c4.01-3.03,4.7-6.74,2.61-14.7c-1.59-6.08-1.61-6.31,0.31-13.01c2.06-7.23,1.83-9.83-1.21-13.12
		c-0.68-0.73-1.04-1.95-0.88-2.75c0.46-2.23-2.39-6.76-5.96-9.57c-3.66-2.88-4.18-3.82-2.72-4.78c1.27-0.84,8.88,2.11,12.49,4.84
		c1.38,1.04,3.48,4.27,5.02,7.62c3.06,6.66,5.44,9.77,7.78,10.25c0.89,0.18,4.6,0.01,8.31-0.35s11.6-0.84,17.51-1.03
		c5.91-0.19,11.17-0.45,11.67-0.69c0.5-0.24,3.26-0.6,6.24-0.78c8.46-0.5,17.83-3.06,19.2-5.22c3.1-4.88,9.66-9.64,13.56-9.88
		c6.95-0.42,11.02-5.46,14.64-18.1c2.08-7.25,7.02-21.02,7.71-21.48c0.13-0.08,0.09-0.56-0.03-1.35l-0.34,0.36
		c-3.35-1.37-4.66-4-13.83-7.09l-3.87-1.21c-2.11-0.62-4.06-1.71-5.9-2.86l-2.05-1.55l-1.93-1.63c-1.89-1.74-3.32-3.93-4.26-6.33
		c-0.06-0.16-0.17-0.35-0.21-0.46c-0.27-0.68-0.41-1.28-0.62-1.98c-0.12-0.31-0.21-0.67-0.21-0.97c-0.15-0.85-0.2-1.67-0.3-2.53
		c-0.08-0.81-0.15-1.69-0.3-2.53c-0.13-0.49-0.34-0.98-0.53-1.45c-0.18-0.47-0.33-0.8-0.57-1.25c-0.97-1.55-2.34-2.92-3.95-3.8
		c-1.37-0.73-2.8-1.29-4.26-1.8c-0.47-0.12-0.86-0.19-1.38-0.28c-0.4-0.09-0.84-0.2-1.28-0.26c-0.47-0.12-0.97-0.3-1.36-0.38
		c-0.5-0.05-1.1-0.03-1.62-0.13c-0.63-0.06-1.25-0.09-1.82-0.17c-0.5-0.05-0.96,0.01-1.44,0.01c-0.2-0.04-0.34-0.1-0.59-0.12
		c-0.67-0.16-1.42-0.29-2.05-0.53c-0.72-0.14-1.33-0.51-1.97-0.92c-0.43-0.32-0.87-0.64-1.24-0.98c-0.26-0.2-0.48-0.44-0.69-0.66
		c-0.23-0.27-0.37-0.54-0.55-0.83c-0.11-0.14-0.38-0.33-0.51-0.52c-0.06-0.16-0.05-0.28-0.12-0.44c-0.02-0.05-0.08-0.12-0.08-0.12
		c-0.07-0.33-0.23-0.63-0.33-0.89c-0.04-0.1-0.04-0.17-0.06-0.22c-0.1-0.26-0.2-0.49-0.25-0.77c-0.03-0.23-0.01-0.54,0.06-0.81
		c-0.01-0.18,0.14-0.24,0.28-0.35c0.14-0.11,0.31-0.28,0.5-0.41c0.21-0.08,0.39-0.07,0.61,0.02c0.96,0.29,1.9,0.73,2.74,1.18
		c1.03,0.62,2.05,1.02,3.2,1.48c0.51,0.22,1.02,0.43,1.54,0.52c0.45,0.07,0.8,0.03,1.23,0.05c0.23-0.03,0.49-0.05,0.75-0.15
		c0.21-0.08,0.45-0.3,0.62-0.49c0.17-0.19,0.33-0.37,0.32-0.55c0.15-0.54,0.11-1.19-0.07-1.66l-0.64-1.88
		c-0.51-1.61-0.99-3.22-1.38-4.81c-0.16-0.42-0.18-0.8-0.27-1.19c-0.01-0.18,0.05-0.32,0.08-0.4c0.08-0.09,0.11-0.23,0.22-0.57
		c0.06-0.15,0.14-0.24,0.28-0.35c0.1-0.04,0.22-0.12,0.36-0.24c0.1-0.04,0.19-0.05,0.32-0.04c0.41-0.04,0.75-0.01,1.09,0.22
		c0.31,0.18,0.61,0.44,0.89,0.7c0.33,0.23,0.65,0.55,0.85,0.89c0.13,0.19,0.24,0.35,0.39,0.6c0.3,0.3,0.6,0.72,0.78,1.19
		c0.36,1.07,0.73,2.06,1.01,3.09c0.14,0.37,0.17,0.62,0.31,0.99c0.1,0.26,0.27,0.58,0.35,0.79c0.63,1.44,1.52,2.81,2.47,4.01
		c0.38,0.51,0.87,0.94,1.36,1.41c0.3,0.3,0.6,0.57,0.69,0.66c0.28,0.25,0.52,0.45,0.96,0.82c0.33,0.23,0.65,0.49,0.98,0.72
		l0.73,0.46c0.24,0.15,0.51,0.21,0.75,0.36c0.22,0.1,0.42,0.22,0.47,0.2c0.51,0.22,1.02,0.36,1.64,0.54c0.56,0.2,1.12,0.29,1.7,0.25
		c0.38,0.03,0.85-0.05,1.17-0.17c0.26-0.1,0.53-0.34,0.71-0.47c0.51-0.38,1.02-0.81,1.39-1.26c0.39-0.39,0.71-0.77,1.08-1.22
		c0.33-0.25,0.51-0.6,0.72-0.99l0.84-1.06c-0.08-0.21-0.21-0.37-0.29-0.58c-0.2-0.52-0.37-1.18-0.47-1.74
		c-0.05-0.28-0.24-0.51-0.33-0.89c-0.18-0.77-0.25-1.56-0.26-2.22c-0.02-0.35,0.01-0.73,0.04-0.2c-0.05-1.06-0.21-2.03-0.24-3.34
		c-0.1-0.56-0.16-1.2-0.37-1.72c-0.13-0.49-0.22-1.05-0.41-1.53c-0.55-1.41-1.31-2.66-2.17-3.95c-0.9-1.22-1.8-2.46-2.51-3.81
		c-0.24-0.45-0.34-0.98-0.53-1.45l-0.14-0.34l-1.13-3.01c-0.17-0.6-0.3-1.09-0.37-1.72c-0.05-0.28,0.01-0.55,0.16-0.79
		c0.26-0.4,0.6-0.76,1.01-0.92c0.11-0.06,0.19-0.01,0.32-0.04c0.37-0.08,0.86-0.08,1.23,0.05c0.95,0.41,1.69,1,2.28,1.91
		c0.16,0.24,0.26,0.49,0.47,0.71l0.16,0.24l0.28,0.16c0.8-0.43,1.55-1.06,2.03-1.85c0.23-0.33,0.44-0.7,0.82-0.96
		c0.22-0.21,0.44-0.39,0.73-0.57C-560.56,15.49-560.19,15.45-559.76,15.46L-559.76,15.46z M-539.68,42.97
		c-0.38-0.03-0.72-0.06-1.13-0.03c-0.67,0.14-1.31,0.27-2.02,0.31c-0.25-0.02-0.53-0.05-0.71-0.04c-0.33,0.07-0.57,0.08-0.85,0.13
		l-0.85,0.13c-1.61,0.4-3.2,0.92-4.74,1.5c-0.51,0.19-1.06,0.39-1.57,0.6c-1.78,0.7-3.54,1.67-5.1,2.76
		c-1.53,1.02-2.82,2.37-3.9,3.93c-1.6,2.38-2.42,5.18-2.38,8.06c0.04,1.49,0.21,3.02,0.75,4.38c0.16,0.42,0.35,0.85,0.57,1.25
		c0.65,1.19,1.45,2.36,2.39,3.38c1.24,1.32,2.71,2.47,4.23,3.45c1.27,0.77,2.51,1.41,3.93,1.94c3.66,1.34,7.48,2.35,11.34,2.95
		l0.12-0.08l-1.28-1.29c-1.03-1.1-2.01-2.25-3.03-3.3c-1.39-1.69-3.04-3.27-4.8-4.69c-0.91-0.79-1.89-1.51-2.84-2.23
		s-1.85-1.41-2.88-2.03c-0.48-0.3-0.84-0.65-1.1-1.15c-0.13-0.19-0.23-0.27-0.31-0.48c-0.1-0.26-0.16-0.69-0.21-0.97
		c-0.11-0.74,0.33-1.41,0.96-1.66c0.42-0.16,0.81-0.09,1.23,0.05c0.56,0.2,1.1,0.54,1.58,0.84c0.91,0.49,1.9,0.81,2.86,1.1
		l0.01-1.03c-0.12-1.7,0.01-3.36,0.4-4.96c0.15-0.54,0.31-1.22,0.46-1.76l-0.06-0.73c-0.07-0.33-0.09-0.74-0.29-1.09
		c-0.2-0.52-0.46-0.9-0.65-1.37c0,0,0.04-0.05,0.02-0.1c-0.08-0.21-0.32-0.56-0.35-0.79c-0.03-0.23,0.1-0.41,0.22-0.57
		c0.3-0.48,0.71-0.78,1.23-0.98c0.05-0.02-0.01-0.18,0.04-0.2c0.26-0.1,0.58-0.06,0.83-0.04c0.92-0.12,1.92-0.19,2.93-0.22
		c0.25,0.02,0.51-0.15,0.77-0.25c0.85-0.45,1.69-0.94,2.48-1.55c0.82-0.68,1.63-1.4,2.41-2.18c0.17-0.19,0.19-0.5,0.02-0.61
		C-539.13,43.11-539.43,42.99-539.68,42.97L-539.68,42.97z M-501.94,69.78l-2.8,1.07l-4.92,1.87l-2.02,0.82l-0.91,0.43l-1.25,0.57
		c-2.19,1.04-4.25,2.14-6.25,3.35c-1.09,0.61-2.12,1.36-3.04,2.26c-0.71,0.64-1.48,1.45-2.01,2.26c-0.43,0.59-0.61,1.31-0.82,1.99
		c-0.2,0.56-0.18,1.19-0.15,1.72l1.17-0.17l1.82-0.35c2.5-0.55,4.9-1.42,7.14-2.65l0.46-0.73c0.39-0.7,0.81-1.39,1.26-2.11
		c0.5-0.74,1.14-1.41,1.75-2.01c0.59-0.65,1.18-1.18,1.87-1.57c0.16-0.06,0.3-0.15,0.46-0.22c0.58-0.23,1.22-0.2,1.76-0.05
		c0.42,0.14,0.74,0.33,0.89,0.7c0.1,0.26,0.08,0.48,0.06,0.73c-0.11,0.95-0.41,1.86-0.86,2.71c-0.31,0.6-0.45,1.24-0.39,1.88
		l0.71,0.04l0.34-0.14l0.67-0.27c0.35-0.2,0.73-0.27,1.13-0.49c0.54-0.33,0.98-0.77,1.37-1.16c1.38-1.57,2.32-3.51,2.68-5.52
		C-501.56,73.13-501.59,71.46-501.94,69.78L-501.94,69.78z"/>
	<path d="M-311.85,6.76c0.3,0.04,0.55,0.08,0.77,0.25c0.3,0.27,0.58,0.62,0.74,0.99c0.17,0.42,0.15,0.83-0.09,1.24
		c-0.56,0.96-1.32,1.89-2.16,2.69c-0.51,0.48-0.89,0.95-1.33,1.47c-0.32,0.32-0.52,0.81-0.6,1.18c-0.09,0.55-0.14,1.05,0.01,1.59
		c0.01,0.05,0.05,0.07,0.06,0.13c0.18,0.47,0.3,0.96,0.48,1.43c0.27,0.8,1.15,1.33,1.98,1.4c0.16-0.04,0.21,0.03,0.32,0
		c0.22-0.06,0.42-0.17,0.51-0.26c1.77-1.45,3.69-2.56,5.79-3.4c1-0.38,2.03,0.04,2.55,0.95c0.24,0.46,0.18,1.06-0.06,1.47
		s-0.43,0.73-0.79,1.12c-0.47,0.65-1.15,1.26-1.84,1.73l-1.37,0.93l-1.78,1.22c-0.34,0.26-0.73,0.5-1.08,0.71
		c-0.34,0.26-0.68,0.66-0.95,0.96c-0.21,0.29-0.49,0.43-0.73,0.61c-0.15,0.1-0.32,0.32-0.38,0.51c-0.14,0.33-0.22,0.76-0.28,1.18
		c-0.1,0.49-0.17,1.06-0.09,1.56c0.01,0.46,0.09,0.93,0.16,1.43c0.03,0.11,0.1,0.15,0.13,0.25c0.11,0.43,0.22,0.89,0.51,1.34
		l0.51,0.7c1.12,0.29,2.39,0.28,3.6,0.02l3.83-0.65l3.09-0.68l3.16-0.55l1.08-0.07l0.61,0.09c0.31-0.37,0.71-0.78,1.02-1.15
		c0.48-0.59,0.91-1.19,1.36-1.89c0.45-0.7,0.87-1.43,1.17-2.27c0.25-0.59,0.54-1.26,0.92-1.82c0.29-0.43,0.75-0.74,1.24-0.87
		c0.47-0.18,1.01-0.14,1.44,0.15c0.51,0.39,0.89,1,0.84,1.66c-0.17,1.79-0.66,3.53-1.39,5.17l-0.6,1.5l6.23,3.65
		c1.02-0.09,1.98-0.27,2.97-0.3c0.86-0.05,1.75,0.14,2.52,0.41c0.82,0.25,1.45,0.9,1.66,1.72c0.23,0.64,0.04,1.27-0.47,1.76
		c-0.7,0.65-1.57,1.14-2.45,1.32l-1.79,0.26c-1.37,0.3-2.76,0.52-4.05,0.68c-0.9,0.12-1.65,0.32-2.52,0.55
		c-0.49,0.13-1.01,0.23-1.75,0.48l-3.38,1.22c-1.34,0.41-2.59,0.99-3.69,1.86c-1.05,0.86-1.92,1.91-2.8,3.01
		c-0.51,0.71-1.14,1.51-1.62,2.33c-0.61,0.98-0.91,2.2-1.01,3.38c-0.04,1.17,0.02,2.31,0.33,3.51c0.03,0.11,0.1,0.23,0.19,0.38
		c0.5,1.67,1.16,3.29,2.03,4.81c1.27,2.16,2.81,4.22,4.58,6.08l2.11,2.29l1.44,1.11l10.29-2.56c0.4-2.89,0.7-5.82,0.89-8.84
		c0.03-0.53,0.29-1.13,0.6-1.5c0.62-0.74,1.67-0.61,2.17,0.18c0.58,0.89,0.98,1.91,1.03,2.99c0.08,0.97,0.01,1.97-0.21,2.9
		c-0.09,0.31-0.13,0.56-0.06,0.83c0.06,0.22,0.15,0.45,0.32,0.64c0.37,0.54,1.04,0.84,1.69,0.66c0.12,0.03,0.28-0.02,0.45-0.07
		c1.41-0.37,2.82-1.2,3.73-1.96l3.98-3.36c0.86-0.69,1.66-1.51,2.29-2.43c0.59-0.85,1.19-1.73,1.9-2.56
		c0.43-0.58,1.01-1.04,1.62-1.38c0.46-0.24,1.04-0.24,1.47,0.06c0.51,0.39,0.79,1.06,0.61,1.69l-0.51,1.21l-1.14,2.49l-0.92,1.82
		l-0.92,1.18c0.63-0.05,1.26-0.15,1.91-0.33c0.87-0.23,1.78-0.56,2.58-1.06l2.32-1.25c0.59-0.39,1.19-0.43,1.85-0.13
		c0.64,0.24,0.92,0.99,0.74,1.62s-0.45,1.17-0.86,1.63l-1.52,1.73c-0.15,2.54-0.69,5.05-1.51,7.47l-0.6,1.82l-0.89,1.73l-0.98,1.69
		c0.87-0.23,1.71-0.34,2.58-0.1c0.68,0.17,1.17,0.75,1.34,1.4c0.25,0.75-0.01,1.52-0.73,1.88c-0.81,0.45-1.64,0.76-2.48,1.09
		c-1.28,0.45-2.56,0.7-3.95,0.72c-1.73,0.05-3.34,0.19-4.88,0.3l-8.48,0.6l-2.04,0.39c3.52,1.99,8.51,4.3,13.32,5.98
		c6.81,2.38,7.52,3.2,6.31,6.96c-0.86,2.67-2.09,4.2-3.18,3.84c-1.54-0.51-13.22,1.34-15.01,2.38c-0.95,0.55-2.57,2.29-3.62,3.9
		c-1.85,2.83-1.88,3.3-0.53,11.93c1.54,9.87,1.07,11.86-3.84,16.15c-1.35,1.18-3.13,3.2-3.91,4.45c-0.78,1.25-2.61,4.04-4.09,6.3
		c-3.05,4.63-3.57,7.7-1.66,9.22c0.72,0.57,3.83,1.43,7.02,1.89c17.14,2.46,16.51,2.27,19.38,4.69c2.83,2.38,13.8,7.56,19.74,9.37
		c6.41,1.95,19.03,9,18.57,10.37c-0.09,0.28-1.93,0.72-4.11,0.88c-5,0.36-9.98-1.4-18.59-6.44c-7.62-4.46-8.51-4.81-8.82-3.86
		c-0.12,0.37,1.61,2.1,3.9,3.94c2.29,1.84,5.04,4.86,6.08,6.68s2.5,3.71,3.27,4.26c0.77,0.55,2.46,3.07,3.69,5.57l2.22,4.55
		l-5.46-1.8c-5.27-1.74-5.56-1.96-8-6.03c-1.39-2.32-2.84-4.33-3.3-4.49c-0.46-0.15-3.63-3.17-6.91-6.74
		c-8.58-9.33-13.45-11.21-23.28-8.95c-9.72,2.23-13.76,2.34-19.04,0.74c-3.04-0.92-6.03-1.36-7.31-1.03
		c-1.19,0.3-2.72,0.7-3.44,0.78c-0.73,0.08-3.35,0.47-5.83,0.95c-4.31,0.82-17.77,3.22-21.55,3.84c-2.38,0.39-10.54,0.1-13.01-0.47
		c-1.08-0.25-2.31-0.76-2.68-1.2c-0.37-0.44-4.15-1.67-8.46-2.68c-11.42-2.69-16.41-1.7-23.01,4.74c-7.19,7-12.58,8.18-24.6,5.38
		c-1.95-0.45-6.98-1.49-11.14-2.29c-7.41-1.42-7.64-1.3-13.3,1.03c-3.18,1.31-6.62,3.19-7.58,4.3c-1.73,2-9.91,6.23-15.09,7.77
		c-1.49,0.44-3.82,1.3-5.19,1.9c-1.37,0.6-2.73,1.01-3.06,0.9c-0.32-0.11-1.08-0.31-1.69-0.35s-2.03-0.48-3.16-1.04
		c-1.95-0.98-1.95-1.19-0.52-3.89l1.46-2.81l-3.35-1.1c-1.86-0.61-3.5-1.39-3.67-1.74c-0.5-0.98,4.97-4.43,8.31-5.23
		c1.65-0.4,3.66-0.49,4.53-0.21c1.81,0.6,13.7-2.94,18.96-5.65c1.96-1.01,5.52-3.68,7.89-5.9c3.64-3.41,4.66-3.87,6.65-3.44
		c4.77,1.03,12.15,0.21,15.3-1.65c4.33-2.55,5.44-6.16,4.29-14.3c-0.88-6.22-0.87-6.45,1.81-12.89c2.88-6.94,2.95-9.56,0.31-13.17
		c-0.59-0.8-0.81-2.05-0.55-2.84c0.71-2.16-1.59-6.99-4.82-10.19c-3.3-3.28-3.71-4.28-2.15-5.06c1.36-0.69,8.58,3.12,11.86,6.24
		c1.25,1.19,2.97,4.64,4.11,8.15c2.27,6.97,4.28,10.33,6.55,11.08c0.86,0.28,4.57,0.54,8.3,0.61c3.73,0.07,11.62,0.5,17.51,0.99
		c5.89,0.49,11.15,0.84,11.68,0.66c0.52-0.18,3.31-0.22,6.28-0.05c8.46,0.48,18.06-0.99,19.67-2.97c3.64-4.49,10.7-8.46,14.61-8.25
		c6.95,0.38,11.57-4.16,16.62-16.29c2.9-6.96,9.4-20.08,10.14-20.45c0.14-0.07,0.16-0.54,0.12-1.34l-0.38,0.32
		c-3.17-1.74-4.17-4.51-12.92-8.63c-1.49-0.65-2.75-1.23-3.71-1.65c-2.03-0.86-3.84-2.17-5.53-3.52l-1.86-1.78l-1.73-1.84
		c-1.67-1.94-2.84-4.28-3.5-6.78c-0.04-0.16-0.13-0.37-0.16-0.48c-0.19-0.71-0.26-1.32-0.39-2.04c-0.09-0.33-0.14-0.69-0.1-0.99
		c-0.05-0.86-0.01-1.68-0.01-2.55c0.02-0.82,0.04-1.69-0.01-2.55c-0.07-0.5-0.23-1.01-0.36-1.5c-0.13-0.49-0.24-0.83-0.42-1.31
		c-0.78-1.65-1.99-3.17-3.49-4.23c-1.28-0.88-2.63-1.61-4.03-2.28c-0.45-0.17-0.83-0.28-1.34-0.44c-0.38-0.13-0.81-0.29-1.25-0.41
		c-0.45-0.17-0.93-0.41-1.31-0.54c-0.49-0.1-1.09-0.16-1.6-0.31c-0.62-0.13-1.23-0.23-1.79-0.38c-0.49-0.1-0.96-0.11-1.44-0.15
		c-0.19-0.07-0.33-0.14-0.57-0.19c-0.64-0.24-1.38-0.45-1.98-0.76c-0.7-0.22-1.26-0.66-1.85-1.14c-0.39-0.36-0.79-0.74-1.12-1.11
		c-0.23-0.23-0.43-0.49-0.61-0.73c-0.19-0.3-0.31-0.58-0.45-0.89c-0.1-0.15-0.34-0.37-0.45-0.57c-0.04-0.16-0.02-0.28-0.07-0.45
		c-0.01-0.05-0.06-0.13-0.06-0.13c-0.03-0.34-0.15-0.65-0.23-0.92c-0.03-0.11-0.02-0.17-0.03-0.22c-0.07-0.27-0.14-0.51-0.16-0.8
		c0-0.23,0.05-0.54,0.16-0.8c0.01-0.18,0.17-0.22,0.32-0.32c0.15-0.1,0.34-0.24,0.54-0.35c0.22-0.06,0.4-0.03,0.61,0.09
		c0.92,0.4,1.81,0.94,2.59,1.49c0.95,0.74,1.92,1.25,3,1.84c0.48,0.28,0.96,0.54,1.47,0.7c0.44,0.12,0.79,0.12,1.21,0.19
		c0.23,0,0.49,0.01,0.77-0.07c0.22-0.06,0.48-0.25,0.67-0.42c0.19-0.17,0.37-0.33,0.38-0.51c0.21-0.52,0.25-1.17,0.12-1.66
		l-0.42-1.94c-0.32-1.66-0.62-3.31-0.81-4.94c-0.11-0.43-0.09-0.82-0.13-1.21c0.01-0.18,0.09-0.31,0.13-0.38
		c0.1-0.08,0.14-0.21,0.29-0.54c0.08-0.14,0.17-0.22,0.32-0.32c0.11-0.03,0.23-0.1,0.38-0.19c0.11-0.03,0.2-0.03,0.32,0
		c0.41,0.01,0.75,0.08,1.05,0.35c0.29,0.21,0.55,0.51,0.8,0.79c0.3,0.27,0.58,0.62,0.74,0.99c0.11,0.2,0.2,0.38,0.32,0.64
		c0.26,0.34,0.51,0.78,0.64,1.27c0.23,1.1,0.49,2.13,0.65,3.19c0.1,0.38,0.09,0.64,0.19,1.02c0.07,0.27,0.2,0.61,0.26,0.83
		c0.45,1.51,1.19,2.97,1.99,4.27c0.32,0.55,0.76,1.03,1.19,1.56c0.26,0.34,0.53,0.64,0.61,0.73c0.25,0.28,0.46,0.5,0.86,0.92
		c0.3,0.27,0.59,0.56,0.9,0.83c0.22,0.17,0.45,0.37,0.67,0.54c0.22,0.17,0.48,0.27,0.7,0.44c0.21,0.12,0.39,0.27,0.45,0.25
		c0.48,0.28,0.98,0.48,1.57,0.73c0.53,0.27,1.07,0.42,1.66,0.44c0.37,0.08,0.85,0.05,1.18-0.04c0.27-0.07,0.56-0.27,0.76-0.39
		c0.55-0.32,1.11-0.69,1.53-1.09c0.43-0.35,0.79-0.69,1.21-1.09c0.35-0.21,0.57-0.54,0.83-0.9l0.95-0.96
		c-0.06-0.22-0.17-0.39-0.23-0.61c-0.14-0.54-0.23-1.21-0.26-1.79c-0.02-0.29-0.18-0.53-0.23-0.92c-0.09-0.79-0.07-1.58-0.01-2.23
		c0.02-0.35,0.1-0.72,0.06-0.19c0.07-1.06,0.03-2.04,0.15-3.35c-0.03-0.57-0.02-1.21-0.17-1.75c-0.07-0.5-0.1-1.07-0.23-1.56
		c-0.39-1.47-0.99-2.79-1.71-4.17c-0.75-1.31-1.51-2.65-2.06-4.08c-0.18-0.47-0.23-1.01-0.36-1.5l-0.1-0.35l-0.78-3.12
		c-0.1-0.61-0.17-1.11-0.17-1.75c-0.02-0.29,0.08-0.55,0.25-0.77c0.31-0.37,0.68-0.69,1.11-0.8c0.12-0.05,0.19,0.01,0.32,0
		c0.38-0.04,0.86,0.02,1.21,0.19c0.89,0.52,1.56,1.19,2.05,2.16c0.13,0.26,0.21,0.52,0.39,0.76l0.13,0.25l0.26,0.19
		c0.84-0.34,1.66-0.87,2.23-1.6c0.27-0.3,0.52-0.64,0.92-0.86c0.24-0.18,0.48-0.34,0.8-0.48C-312.64,6.7-312.27,6.7-311.85,6.76
		L-311.85,6.76z M-295.06,36.4c-0.37-0.08-0.71-0.15-1.12-0.16c-0.68,0.06-1.33,0.12-2.04,0.07c-0.25-0.05-0.52-0.11-0.7-0.13
		c-0.34,0.03-0.58,0.02-0.86,0.03c-0.23,0-0.58,0.02-0.86,0.03c-1.64,0.21-3.28,0.54-4.88,0.94l-1.63,0.42
		c-1.85,0.49-3.7,1.25-5.38,2.16c-1.64,0.84-3.08,2.03-4.33,3.46c-1.87,2.18-3,4.86-3.29,7.73c-0.13,1.49-0.13,3.02,0.24,4.43
		c0.11,0.43,0.25,0.89,0.42,1.31c0.51,1.26,1.17,2.51,1.99,3.63c1.08,1.46,2.4,2.77,3.81,3.91c1.17,0.91,2.33,1.69,3.68,2.38
		c3.48,1.76,7.16,3.19,10.92,4.24l0.13-0.06l-1.12-1.43c-0.9-1.22-1.74-2.47-2.63-3.63c-1.18-1.84-2.64-3.6-4.23-5.22
		c-0.82-0.89-1.71-1.72-2.56-2.54c-0.86-0.82-1.67-1.61-2.62-2.35c-0.44-0.35-0.76-0.74-0.96-1.27c-0.11-0.2-0.2-0.29-0.26-0.51
		c-0.07-0.27-0.08-0.7-0.1-0.99c-0.02-0.75,0.49-1.36,1.14-1.53c0.43-0.11,0.82,0,1.21,0.19c0.53,0.27,1.03,0.67,1.47,1.02
		c0.85,0.59,1.8,1.03,2.72,1.43l0.12-1.02c0.07-1.7,0.39-3.34,0.97-4.88c0.21-0.52,0.45-1.17,0.66-1.69l0.03-0.73
		c-0.03-0.34-0.01-0.75-0.16-1.12c-0.14-0.54-0.35-0.94-0.48-1.43c0,0,0.05-0.04,0.03-0.1c-0.06-0.22-0.25-0.6-0.26-0.83
		c0-0.23,0.15-0.39,0.28-0.54c0.35-0.44,0.79-0.69,1.34-0.83c0.05-0.01,0.01-0.18,0.06-0.19c0.27-0.07,0.58,0.01,0.83,0.06
		c0.93-0.01,1.92,0.03,2.93,0.12c0.25,0.05,0.53-0.09,0.8-0.16c0.89-0.35,1.79-0.74,2.64-1.25c0.89-0.58,1.78-1.2,2.64-1.89
		c0.19-0.17,0.24-0.47,0.09-0.61C-294.54,36.6-294.81,36.45-295.06,36.4L-295.06,36.4z M-260.67,67.38l-2.9,0.74l-5.1,1.29
		l-2.1,0.58l-0.96,0.32l-1.31,0.42c-2.29,0.78-4.47,1.64-6.59,2.61c-1.15,0.48-2.27,1.1-3.28,1.89c-0.78,0.55-1.64,1.27-2.26,2.02
		c-0.5,0.54-0.76,1.23-1.05,1.89c-0.27,0.53-0.31,1.16-0.35,1.69l1.18-0.04l1.85-0.13c2.55-0.26,5.03-0.84,7.39-1.81l0.54-0.67
		c0.47-0.65,0.97-1.29,1.49-1.95c0.58-0.67,1.3-1.27,1.97-1.79c0.66-0.58,1.3-1.04,2.04-1.35c0.16-0.04,0.31-0.12,0.48-0.16
		c0.6-0.16,1.23-0.06,1.75,0.15c0.4,0.19,0.7,0.41,0.8,0.79c0.07,0.27,0.02,0.49-0.03,0.73c-0.22,0.93-0.62,1.8-1.17,2.59
		c-0.37,0.56-0.59,1.18-0.6,1.82l0.7,0.13l0.35-0.1c0.22-0.06,0.48-0.14,0.7-0.19c0.37-0.15,0.76-0.19,1.18-0.35
		c0.57-0.27,1.06-0.65,1.5-0.99c1.55-1.4,2.71-3.22,3.3-5.18C-260.67,70.75-260.51,69.08-260.67,67.38L-260.67,67.38z"/>
	<path d="M-69.88,7.78c0.3,0.06,0.54,0.12,0.74,0.32c0.28,0.29,0.53,0.67,0.65,1.04c0.13,0.43,0.08,0.84-0.2,1.23
		c-0.64,0.91-1.48,1.77-2.38,2.49c-0.55,0.44-0.97,0.87-1.45,1.35c-0.35,0.29-0.59,0.77-0.7,1.13c-0.13,0.54-0.23,1.04-0.13,1.59
		c0.01,0.06,0.04,0.08,0.05,0.13c0.14,0.49,0.22,0.98,0.36,1.47c0.2,0.82,1.03,1.42,1.86,1.56c0.17-0.03,0.21,0.05,0.32,0.03
		c0.22-0.04,0.43-0.14,0.53-0.21c1.88-1.3,3.89-2.24,6.06-2.9c1.03-0.29,2.01,0.21,2.47,1.16c0.2,0.48,0.09,1.07-0.18,1.46
		c-0.27,0.39-0.49,0.69-0.89,1.05c-0.52,0.6-1.26,1.15-1.98,1.57l-1.44,0.81l-1.88,1.06c-0.36,0.23-0.77,0.43-1.14,0.61
		c-0.36,0.23-0.74,0.6-1.03,0.88c-0.24,0.27-0.52,0.39-0.78,0.54c-0.16,0.08-0.34,0.29-0.42,0.48c-0.17,0.32-0.28,0.74-0.38,1.15
		c-0.14,0.48-0.25,1.04-0.22,1.55c-0.03,0.46,0.01,0.94,0.04,1.44c0.02,0.11,0.09,0.15,0.11,0.26c0.08,0.44,0.15,0.91,0.4,1.38
		l0.45,0.74c1.09,0.38,2.36,0.48,3.59,0.32l3.87-0.33l3.14-0.42l3.19-0.28l1.09,0.02l0.6,0.14c0.34-0.34,0.77-0.72,1.11-1.06
		c0.53-0.55,1.01-1.1,1.52-1.76s0.99-1.35,1.36-2.16c0.3-0.57,0.65-1.21,1.07-1.74c0.33-0.4,0.81-0.67,1.31-0.76
		c0.49-0.14,1.02-0.05,1.42,0.28c0.48,0.43,0.81,1.07,0.69,1.72c-0.32,1.77-0.95,3.46-1.82,5.04l-0.73,1.45l5.9,4.16
		c1.03-0.01,2-0.1,2.98-0.05c0.86,0.02,1.74,0.29,2.48,0.62c0.8,0.32,1.37,1.02,1.51,1.85c0.17,0.65-0.07,1.27-0.62,1.71
		c-0.75,0.59-1.66,1.01-2.55,1.1l-1.8,0.11c-1.39,0.19-2.79,0.28-4.09,0.34c-0.91,0.04-1.67,0.18-2.56,0.34
		c-0.5,0.09-1.02,0.14-1.79,0.33c-1.2,0.32-2.44,0.64-3.47,0.93c-1.37,0.3-2.66,0.77-3.84,1.54c-1.12,0.77-2.08,1.74-3.04,2.76
		c-0.57,0.67-1.26,1.41-1.81,2.19c-0.69,0.92-1.1,2.11-1.29,3.29c-0.14,1.16-0.18,2.31,0.03,3.52c0.02,0.11,0.08,0.24,0.16,0.4
		c0.35,1.71,0.88,3.38,1.61,4.96c1.08,2.26,2.45,4.44,4.05,6.44l1.91,2.46l1.34,1.23l10.47-1.68c0.64-2.85,1.19-5.74,1.64-8.73
		c0.08-0.53,0.39-1.1,0.73-1.45c0.68-0.69,1.71-0.47,2.15,0.37c0.51,0.94,0.81,1.98,0.77,3.07c0,0.97-0.16,1.97-0.46,2.87
		c-0.12,0.31-0.18,0.54-0.13,0.82c0.04,0.22,0.12,0.46,0.27,0.66c0.33,0.57,0.97,0.92,1.63,0.8c0.12,0.04,0.28,0,0.45-0.03
		c1.44-0.25,2.91-0.95,3.88-1.64c1.37-0.98,2.62-1.88,4.25-3.01c0.92-0.62,1.78-1.37,2.49-2.23c0.66-0.8,1.33-1.62,2.11-2.39
		c0.48-0.54,1.1-0.95,1.73-1.24c0.48-0.2,1.06-0.15,1.46,0.18c0.47,0.43,0.7,1.12,0.47,1.73l-0.61,1.17l-1.35,2.39l-1.07,1.74
		l-1.02,1.1c0.63,0,1.27-0.05,1.93-0.16c0.89-0.15,1.82-0.41,2.66-0.84l2.42-1.05c0.63-0.34,1.22-0.32,1.85,0.02
		c0.62,0.29,0.83,1.07,0.6,1.68c-0.24,0.61-0.55,1.13-0.99,1.55l-1.67,1.59c-0.36,2.52-1.11,4.97-2.13,7.31l-0.75,1.76l-1.03,1.64
		l-1.12,1.6c0.89-0.15,1.73-0.19,2.58,0.11c0.67,0.23,1.11,0.84,1.22,1.51c0.19,0.77-0.14,1.51-0.88,1.82
		c-0.85,0.38-1.7,0.61-2.57,0.88c-1.31,0.34-2.61,0.48-4,0.38c-1.73-0.1-3.34-0.09-4.89-0.11l-8.5-0.12l-2.07,0.22
		c3.34,2.28,8.12,5.01,12.77,7.09c6.59,2.95,7.23,3.82,5.7,7.47c-1.09,2.59-2.43,4.01-3.49,3.56c-1.49-0.64-13.29,0.22-15.16,1.1
		c-1,0.47-2.75,2.06-3.94,3.58c-2.08,2.66-2.15,3.13-1.54,11.84c0.7,9.97,0.06,11.9-5.19,15.77c-1.44,1.06-3.39,2.92-4.27,4.1
		c-0.88,1.18-2.94,3.81-4.61,5.93c-3.43,4.36-4.21,7.37-2.43,9.05c0.67,0.63,3.7,1.75,6.84,2.48c16.87,3.9,16.25,3.66,18.91,6.31
		c2.62,2.61,13.11,8.7,18.88,11.01c6.22,2.48,18.2,10.57,17.63,11.9c-0.12,0.27-1.98,0.55-4.17,0.52
		c-5.02-0.06-9.82-2.24-17.97-7.99c-7.21-5.08-8.07-5.51-8.46-4.59c-0.15,0.36,1.43,2.23,3.56,4.26c2.13,2.03,4.61,5.27,5.5,7.17
		s2.18,3.91,2.9,4.52c0.72,0.61,2.19,3.27,3.2,5.86l1.82,4.72l-5.29-2.25c-5.1-2.18-5.37-2.42-7.46-6.69
		c-1.19-2.43-2.46-4.56-2.91-4.75c-0.45-0.19-3.35-3.46-6.32-7.3c-7.76-10.02-12.45-12.3-22.44-10.88
		c-9.88,1.4-13.9,1.17-19.03-0.88c-2.95-1.18-5.89-1.86-7.2-1.64c-1.21,0.2-2.77,0.46-3.5,0.48c-0.73,0.02-3.38,0.19-5.89,0.45
		c-4.36,0.45-17.98,1.71-21.8,2c-2.4,0.19-10.51-0.79-12.93-1.56c-1.06-0.34-2.24-0.95-2.57-1.43c-0.33-0.47-4-2.01-8.2-3.39
		c-11.15-3.65-16.21-3.07-23.33,2.78c-7.75,6.37-13.22,7.09-24.97,3.28c-1.9-0.62-6.83-2.08-10.91-3.22
		c-7.26-2.04-7.51-1.94-13.34-0.09c-3.27,1.04-6.86,2.62-7.91,3.64c-1.89,1.84-10.4,5.37-15.69,6.47c-1.52,0.31-3.92,0.98-5.33,1.45
		c-1.41,0.48-2.81,0.78-3.12,0.64c-0.31-0.13-1.06-0.4-1.66-0.49c-0.6-0.09-1.99-0.65-3.06-1.3c-1.86-1.14-1.84-1.35-0.19-3.92
		l1.69-2.68l-3.25-1.38c-1.8-0.77-3.37-1.68-3.51-2.05c-0.41-1.02,5.32-3.99,8.72-4.51c1.68-0.25,3.69-0.18,4.53,0.18
		c1.76,0.75,13.9-1.77,19.37-4.03c2.04-0.84,5.81-3.2,8.36-5.21c3.91-3.09,4.97-3.46,6.92-2.86c4.67,1.43,12.09,1.24,15.39-0.35
		c4.53-2.17,5.94-5.68,5.48-13.89c-0.35-6.28-0.32-6.5,2.89-12.69c3.46-6.67,3.75-9.27,1.42-13.1c-0.52-0.85-0.63-2.11-0.31-2.87
		c0.89-2.09-1-7.1-3.94-10.56c-3.02-3.55-3.34-4.58-1.72-5.23c1.42-0.57,8.29,3.84,11.29,7.22c1.15,1.29,2.56,4.88,3.41,8.47
		c1.67,7.13,3.39,10.66,5.59,11.59c0.84,0.36,4.51,0.92,8.21,1.31s11.54,1.48,17.37,2.47c5.83,0.99,11.04,1.78,11.58,1.65
		c0.54-0.13,3.32,0.06,6.27,0.48c8.39,1.19,18.08,0.54,19.85-1.3c4.01-4.16,11.38-7.53,15.26-6.98c6.89,0.97,11.88-3.16,17.94-14.83
		c3.48-6.69,11.06-19.21,11.83-19.52c0.14-0.06,0.2-0.53,0.24-1.32l-0.4,0.29c-3.01-2-3.77-4.85-12.14-9.69l-3.55-1.95
		c-1.95-1.03-3.64-2.48-5.21-3.98l-1.7-1.93l-1.57-1.98c-1.5-2.08-2.47-4.51-2.91-7.05c-0.03-0.17-0.1-0.38-0.12-0.49
		c-0.13-0.72-0.15-1.34-0.22-2.07c-0.06-0.33-0.08-0.7-0.02-0.99c0.02-0.86,0.13-1.67,0.21-2.54c0.09-0.81,0.19-1.68,0.21-2.54
		c-0.03-0.51-0.14-1.02-0.23-1.52c-0.09-0.5-0.17-0.85-0.31-1.34c-0.64-1.71-1.72-3.33-3.12-4.51c-1.2-0.99-2.48-1.82-3.82-2.61
		c-0.44-0.21-0.81-0.35-1.3-0.55c-0.37-0.16-0.78-0.36-1.21-0.51c-0.44-0.21-0.89-0.48-1.26-0.65c-0.48-0.14-1.07-0.25-1.56-0.45
		c-0.6-0.18-1.2-0.34-1.75-0.53c-0.48-0.14-0.95-0.19-1.42-0.28c-0.18-0.08-0.32-0.17-0.56-0.24c-0.62-0.29-1.33-0.57-1.91-0.92
		c-0.68-0.28-1.2-0.76-1.75-1.29c-0.35-0.39-0.72-0.8-1.02-1.2c-0.21-0.25-0.39-0.52-0.54-0.78c-0.17-0.31-0.26-0.6-0.37-0.93
		c-0.08-0.16-0.3-0.4-0.4-0.61c-0.03-0.17,0-0.28-0.03-0.45c-0.01-0.06-0.05-0.13-0.05-0.13c0-0.34-0.1-0.66-0.15-0.94
		c-0.02-0.11,0-0.17-0.01-0.23c-0.05-0.28-0.1-0.52-0.09-0.81c0.02-0.23,0.1-0.53,0.22-0.78c0.03-0.18,0.19-0.21,0.34-0.29
		c0.16-0.08,0.36-0.21,0.57-0.31c0.22-0.04,0.4,0.01,0.6,0.14c0.88,0.47,1.72,1.09,2.45,1.7c0.88,0.82,1.81,1.41,2.84,2.09
		c0.45,0.32,0.91,0.62,1.41,0.82c0.43,0.15,0.78,0.19,1.19,0.29c0.23,0.02,0.49,0.05,0.77,0c0.22-0.04,0.5-0.21,0.7-0.36
		c0.2-0.15,0.4-0.3,0.42-0.48c0.25-0.5,0.35-1.14,0.26-1.64l-0.26-1.97c-0.18-1.68-0.34-3.35-0.39-4.99
		c-0.08-0.44-0.02-0.82-0.03-1.22c0.03-0.18,0.11-0.31,0.16-0.37c0.1-0.07,0.16-0.2,0.33-0.52c0.09-0.13,0.19-0.21,0.34-0.29
		c0.11-0.02,0.24-0.08,0.4-0.16c0.11-0.02,0.2-0.01,0.32,0.03c0.41,0.04,0.74,0.14,1.02,0.43c0.27,0.24,0.51,0.56,0.73,0.86
		c0.28,0.29,0.53,0.67,0.65,1.04c0.09,0.21,0.16,0.39,0.27,0.66c0.23,0.36,0.45,0.83,0.53,1.32c0.14,1.12,0.3,2.16,0.38,3.23
		c0.07,0.39,0.04,0.65,0.11,1.03c0.05,0.28,0.15,0.63,0.19,0.85c0.33,1.54,0.93,3.06,1.62,4.42c0.27,0.58,0.67,1.09,1.05,1.65
		c0.23,0.36,0.47,0.68,0.54,0.78c0.22,0.3,0.42,0.54,0.78,0.99c0.28,0.29,0.54,0.61,0.82,0.9l0.62,0.59c0.2,0.19,0.46,0.31,0.66,0.5
		c0.19,0.14,0.37,0.3,0.42,0.29c0.46,0.32,0.93,0.56,1.5,0.86c0.51,0.31,1.03,0.51,1.62,0.58c0.36,0.11,0.85,0.12,1.18,0.06
		c0.28-0.05,0.58-0.23,0.79-0.32c0.58-0.27,1.16-0.59,1.61-0.96c0.46-0.31,0.85-0.62,1.3-0.98c0.37-0.18,0.61-0.49,0.9-0.82
		l1.03-0.88c-0.04-0.22-0.13-0.4-0.17-0.62c-0.1-0.55-0.12-1.23-0.11-1.8c0.01-0.29-0.14-0.54-0.15-0.94
		c-0.02-0.79,0.07-1.58,0.18-2.23c0.05-0.35,0.16-0.71,0.08-0.19c0.16-1.05,0.2-2.03,0.43-3.33c0.01-0.57,0.08-1.21-0.02-1.76
		c-0.03-0.51-0.01-1.08-0.1-1.58c-0.26-1.49-0.75-2.87-1.35-4.3c-0.64-1.37-1.28-2.77-1.7-4.23c-0.14-0.49-0.14-1.02-0.23-1.52
		l-0.07-0.36l-0.51-3.18C-80.8,9-80.83,8.49-80.77,7.85c0.01-0.29,0.12-0.54,0.32-0.74c0.34-0.34,0.73-0.63,1.18-0.7
		c0.12-0.04,0.19,0.03,0.32,0.03c0.38-0.01,0.86,0.09,1.19,0.29c0.84,0.59,1.45,1.31,1.86,2.33c0.1,0.27,0.16,0.54,0.32,0.79
		l0.11,0.26l0.24,0.21c0.87-0.27,1.73-0.73,2.35-1.41c0.29-0.28,0.57-0.6,0.99-0.78c0.26-0.16,0.51-0.3,0.83-0.41
		C-70.67,7.65-70.3,7.68-69.88,7.78L-69.88,7.78z M-55.66,38.73c-0.36-0.11-0.69-0.21-1.1-0.25c-0.68,0.01-1.34,0-2.04-0.1
		c-0.24-0.07-0.51-0.16-0.69-0.18c-0.34,0-0.57-0.03-0.86-0.04c-0.23-0.02-0.57-0.03-0.86-0.04c-1.66,0.08-3.32,0.26-4.94,0.53
		c-0.54,0.09-1.12,0.17-1.65,0.28c-1.88,0.33-3.8,0.93-5.55,1.69c-1.7,0.7-3.24,1.76-4.6,3.08c-2.04,2.01-3.4,4.59-3.93,7.42
		c-0.26,1.47-0.39,3-0.14,4.44c0.08,0.44,0.17,0.9,0.31,1.34c0.4,1.3,0.96,2.6,1.68,3.78c0.95,1.54,2.16,2.96,3.46,4.22
		c1.09,1.01,2.18,1.88,3.46,2.68c3.32,2.04,6.87,3.79,10.53,5.14l0.13-0.05l-1-1.52c-0.8-1.29-1.53-2.6-2.31-3.84
		c-1.02-1.93-2.33-3.81-3.77-5.55c-0.74-0.96-1.55-1.86-2.34-2.75c-0.78-0.89-1.53-1.75-2.42-2.56c-0.41-0.38-0.7-0.81-0.85-1.35
		c-0.09-0.21-0.17-0.31-0.21-0.53c-0.05-0.28-0.02-0.71-0.02-0.99c0.04-0.75,0.6-1.32,1.27-1.43c0.44-0.08,0.81,0.07,1.19,0.29
		c0.51,0.31,0.97,0.75,1.38,1.14c0.8,0.66,1.7,1.18,2.59,1.65l0.21-1.01c0.22-1.69,0.67-3.29,1.38-4.78c0.25-0.5,0.55-1.13,0.8-1.63
		l0.09-0.73c0-0.34,0.05-0.75-0.07-1.13c-0.1-0.55-0.27-0.97-0.36-1.47c0,0,0.05-0.04,0.04-0.09c-0.04-0.22-0.2-0.62-0.19-0.85
		c0.02-0.23,0.18-0.38,0.33-0.52c0.38-0.41,0.85-0.62,1.4-0.72c0.05-0.01,0.02-0.18,0.08-0.19c0.28-0.05,0.58,0.06,0.82,0.13
		c0.92,0.07,1.91,0.2,2.91,0.36c0.24,0.07,0.53-0.05,0.81-0.09c0.92-0.28,1.85-0.58,2.74-1.03c0.94-0.51,1.87-1.04,2.79-1.66
		c0.2-0.15,0.28-0.45,0.14-0.6C-55.16,38.97-55.42,38.8-55.66,38.73L-55.66,38.73z M-24,72.5l-2.95,0.5l-5.19,0.86l-2.14,0.4
		l-0.98,0.24l-1.34,0.31c-2.35,0.58-4.59,1.26-6.79,2.04c-1.19,0.38-2.35,0.91-3.43,1.61c-0.83,0.49-1.74,1.13-2.42,1.82
		c-0.54,0.49-0.86,1.16-1.2,1.79c-0.31,0.51-0.41,1.13-0.49,1.66l1.18,0.06l1.85,0.02c2.56-0.05,5.09-0.41,7.52-1.18l0.6-0.62
		c0.52-0.6,1.07-1.2,1.65-1.82c0.63-0.62,1.4-1.15,2.12-1.62c0.71-0.52,1.39-0.92,2.14-1.17c0.17-0.03,0.32-0.09,0.49-0.12
		c0.61-0.11,1.24,0.05,1.74,0.3c0.38,0.22,0.66,0.47,0.73,0.86c0.05,0.28-0.02,0.49-0.09,0.73c-0.3,0.91-0.77,1.74-1.39,2.48
		c-0.42,0.53-0.69,1.13-0.75,1.76l0.69,0.18c0.11-0.02,0.19-0.04,0.36-0.07c0.22-0.04,0.49-0.1,0.71-0.13
		c0.38-0.12,0.77-0.12,1.2-0.25c0.59-0.22,1.11-0.56,1.57-0.86c1.66-1.26,2.97-2.98,3.73-4.88C-24.29,75.86-23.99,74.21-24,72.5
		L-24,72.5z"/>
	<path d="M-872.47,122.47c-2.8,0-5.53,1.08-9.61,3.61c-4.45,2.76-8.52,6.01-9.16,7.1c-0.64,1.09-2.86,2.8-4.97,3.81
		s-0.06,1.62,4.58,1.35c9.88-0.57,12.37,1.9,10.9,10.77c-0.96,5.82-2.39,6.5-13.55,6.77c-16.33,0.41-27.76,5.2-32.26,13.48
		c-2.22,4.09-5.32,6.27-7.81,5.55c-4.49-1.31-4.76-0.45-1.87,5.55c1.07,2.21,2.97,3.22,4.19,2.32c1.22-0.9,4.42-0.57,7.1,0.71
		c4.3,2.05,4.34,2.45,0.52,2.84c-2.38,0.24-4.89,2.21-5.55,4.45c-0.89,3.06,0.72,3.96,6.52,3.48c9.4-0.78,12.78,3.66,16.77,22.71
		c3.07,14.62,11.84,25.41,20.26,24.71c5.45-0.45,5.53,3.69,0.13,10.06c-2.43,2.87-5.01,7.3-5.74,9.81
		c-1.84,6.32-17.75,7.41-23.94,1.61c-6.27-5.87-6.85-15.23-1.1-16.97c8.33-2.52,14.36-0.18,13.42,5.16
		c-0.48,2.76,0.02,5.06,1.1,4.97c4.19-0.35,4.75-3.84,1.48-9.68c-2.34-4.19-5.6-5.94-10.39-5.55c-9.25,0.76-12.92,5.6-12.06,15.94
		c0.57,6.91,2.32,9.19,9.35,12c9.71,3.88,37.73,1.84,77.48-5.55c24.35-4.53,63.89-18.64,69.1-24.71c1.63-1.9,5.03-4.48,7.55-5.68
		c2.52-1.2,6.07-6.75,7.87-12.32c2.75-8.49,2.62-11.71-0.84-19.87c-4.16-9.82-13.46-16.96-21.16-16.32
		c-2.3,0.19-7.19,2.28-10.97,4.65c-7.8,4.89-13.16,2.99-19.61-7.03c-4.69-7.28-2.34-10.97,3.03-4.77c2.95,3.4,4.42,3.69,5.74,1.1
		c2.45-4.81-5.42-10.84-10.77-8.26c-2.4,1.15-5.41,4.44-6.65,7.29c-2.95,6.81-5.55,6.78-14.45-0.19c-7.81-6.12-7.69-6.44,5.1-14.65
		c3.28-2.1,15.5-4.75,27.29-5.87c6.15-0.58,13.46-1.41,20.19-2.39c0,0,175.3-17.52,378.13-25.03c101.41-3.76,185.28-3.78,243.8-2.84
		c58.52,0.94,92.39-0.26,92.39-0.26l-0.52-0.13c0,0-33.23-1.9-91.81-2.84c-29.29-0.47-64.88-0.74-105.87-0.39
		s-87.39,1.35-138.13,3.23c-202.94,7.52-378.32,25.03-378.32,25.03v0.06c-4.09,0.31-8.21,0.63-13.61,1.1
		c-24.13,2.09-42.65,4.52-41.16,5.29c1.49,0.77,0.94,2.22-1.29,3.29c-2.56,1.23-4.12,0.58-4.32-1.87c-0.18-2.13-2.27-3.74-4.58-3.55
		c-5.64,0.47-14.83-9.47-14.19-15.35c0.28-2.6-0.57-4.76-1.94-4.65c-1.37,0.11-2.68-1.98-2.9-4.65c-0.22-2.67-3.52-5.98-7.35-7.35
		C-869.04,122.81-870.79,122.47-872.47,122.47L-872.47,122.47z M-763.05,194.47c10.64,7.03,11.71,22.19,2.19,31.81
		c-13.8,13.94-16.22,14.6-20.65,6.32c-2.19-4.1-5.78-8-8-8.65c-5.29-1.54-5.8-8.48-0.65-8.9c0.69-0.06,1.25-0.14,1.68-0.39
		c4.05,4.94,10.61,7.16,16.39,3.94c2.61-1.46,4.65-4.05,5.68-7.03c1.03-2.98,1.03-6.45-0.65-9.48c-1.05-1.89-2.76-3.36-4.71-4
		c-0.98-0.32-2.05-0.42-3.1-0.19s-2.04,0.76-2.9,1.68c-0.6,0.64-0.64,1.71-0.06,2.39c0.58,0.67,1.52,0.71,2.13,0.06
		c0.89-0.96,1.91-1.1,3.1-0.71c1.18,0.39,2.42,1.4,3.03,2.52c1.16,2.09,1.14,4.4,0.39,6.58c-0.75,2.18-2.36,4.1-4.26,5.16
		c-5.25,2.93-11.46-0.03-14.32-5.48c-0.01-0.04-0.05-0.09-0.06-0.13c-0.12-0.45-0.28-0.9-0.45-1.42c-1.49-4.37-0.57-7.95,2.97-12.13
		c3.19-3.77,6.46-5.83,10.06-6.13c0.45-0.04,0.89-0.08,1.35-0.06C-770.67,190.33-767.16,191.76-763.05,194.47z M-786.22,233.96
		c1.31,4.55,1.22,9.51-0.13,11.1c-1.65,1.95-2.59,1.04-2.9-2.77c-0.57-6.95-4.36-9.22-11.1-6.45c-4.97,2.04-6.77,12.52-2.06,12.13
		c1.29-0.11,2.02-2.18,1.61-4.65c-0.41-2.47,1.38-5.14,3.87-5.87c8.1-2.38,5.66,7.08-3.03,11.74c-13.62,7.31-14.74,6.31-9.87-8.52
		c4.04-12.31,5.22-13.76,12.77-14.39c0.91-0.08,1.71-0.11,2.45-0.13C-789.41,226.03-788.03,227.65-786.22,233.96z M-812.99,230.41
		c3.43,0.13,2.56,3.12-0.58,10.58c-2.55,6.05-5.66,11.12-6.97,11.23c-2.99,0.25-3.04-0.55-0.52-9.29c1.37-4.74,1.14-6.45-0.52-5.23
		c-1.37,1.01-2.42,3.17-2.32,4.9c0.36,6.53-6.86,13.92-16.32,16.58c-2.73,0.77-5.98,0.91-9.02,1.5c-7.89,1.77-21.69,5.43-31.3,1.4
		c-0.17-2.05-1.39-1.79-3.94,0.71c-4.03,3.95-5.17,1.22-2-4.84c1.1-2.1,3.27-3.25,4.84-2.45c1.57,0.8,5.14-1.92,7.87-6.06
		c3.98-6.02,7.52-7.76,17.74-9.23l1.61-0.26c0.29-0.04,1.16,3.62,0.97-0.13c8.79-1.16,9.98-0.54,9.29,3.42
		c-1.06,6.08,7.11,8.92,11.94,4.19c1.89-1.85,2.62-5.3,1.61-7.74c-1.39-3.39,0.09-4.98,6.32-6.77
		C-818.61,231.3-815.05,230.33-812.99,230.41L-812.99,230.41z M-851.29,251.97c-0.77-4.55-1.48-6.89-1.7-8.86
		c-0.01-0.09-0.31-1.9-0.45-3.29c-0.31,0.04-1.49,0.08-1.82,0.13c-0.9,4.67-0.08,15.87,3.94,20.75c0.32-0.06,1.41-0.13,1.73-0.19
		C-849.67,258.75-850.59,256.11-851.29,251.97z M-834.54,244.34c-1.99,2.84-3.81,3.36-5.87,1.61s-2.06-3.54-0.19-5.74
		c1.28-1.51,2.56-2.08,3.81-2.13C-834.04,237.99-832.06,240.81-834.54,244.34z M-876.92,248.73c-3.16,6.13-5.8,5.61-3.94-0.77
		c0.67-2.31,2.43-4.33,3.94-4.45C-875.19,243.36-875.16,245.3-876.92,248.73z M-913.25,253.18c0.18,2.18,1.56,3.86,2.97,3.74
		c1.41-0.12,1.72-1.89,0.71-4c-1.18-2.45-2.18-3.73-2.84-3.68C-913.06,249.3-913.46,250.65-913.25,253.18z"/>
</g>
</svg>