<svg xmlns="http://www.w3.org/2000/svg">
    <!-- Present for CARD (it is section #2) -->
    <symbol viewBox="0 0 32 32" id="present">
        <path stroke="none"
              d="M32 10.015a2 2 0 0 0-2-2h-3.414c.884-.872 1.449-2.014 1.449-3.421 0-1.732-.995-3.615-3.788-3.615-3.675 0-6.745 3.913-8.188 6.106C14.615 4.892 11.452.979 7.777.979c-2.793 0-3.788 1.882-3.788 3.614 0 1.407.581 2.55 1.482 3.421H1.999a2 2 0 0 0-2 2V16h2.018v13.017a2 2 0 0 0 2 2h23.99a2 2 0 0 0 2-2V15.999h1.992v-5.986zm-7.753-7.034c1.236 0 1.788.52 1.788 1.615 0 2.221-2.479 3.42-4.811 3.42h-3.386c1.421-2.111 3.922-5.035 6.409-5.035zm-16.469 0c2.487 0 5.083 2.924 6.504 5.034h-3.386c-2.332 0-4.905-1.229-4.905-3.451 0-1.095.551-1.583 1.788-1.583zM30 14.002H17v-3.986h13v3.986zM2 10.015h13v3.986H2zm2.018 5.987H15V29.02H4.018zm23.99 13.018H17V16.003h11.008V29.02z"/>
    </symbol>
    <!-- Star for xmas TREE -->
    <symbol viewBox="-6.4 -6.4 76.8 76.8" id="star">
        <path d="M62.799 23.737a3.941 3.941 0 0 0-3.139-2.642l-16.969-2.593-7.622-16.237a3.938 3.938 0 0 0-7.13 0l-7.623 16.238-16.969 2.593a3.937 3.937 0 0 0-2.222 6.642l12.392 12.707-2.935 17.977a3.94 3.94 0 0 0 5.797 4.082l15.126-8.365 15.126 8.365a3.94 3.94 0 0 0 5.796-4.082l-2.935-17.977 12.393-12.707a3.942 3.942 0 0 0 .914-4.001z"/>
    </symbol>
</svg>